# Blender v2.80 (sub 75) OBJ File: 'UvCube.blend'
# www.blender.org
o Cube
v 0.500000 0.500000 -0.500000
v 0.500000 -0.500000 -0.500000
v 0.500000 0.500000 0.500000
v 0.500000 -0.500000 0.500000
v -0.500000 0.500000 -0.500000
v -0.500000 -0.500000 -0.500000
v -0.500000 0.500000 0.500000
v -0.500000 -0.500000 0.500000
vt -0.000310 -0.000310
vt 1.000310 -0.000310
vt 1.000310 1.000310
vt -0.000310 1.000310
vt 1.000310 -0.000310
vt 1.000310 1.000310
vt -0.000310 1.000310
vt -0.000310 -0.000310
vt 1.000310 -0.000310
vt -0.000310 1.000310
vt -0.000310 -0.000310
vt 1.000310 -0.000310
vt -0.000310 -0.000310
vt -0.000310 1.000310
vt 1.000310 1.000310
vt 1.000310 -0.000310
vt 1.000310 1.000310
vt -0.000310 -0.000310
vt 1.000310 1.000310
vt -0.000310 1.000310
vn 0.0000 1.0000 0.0000
vn 0.0000 0.0000 1.0000
vn -1.0000 0.0000 0.0000
vn 0.0000 -1.0000 0.0000
vn 1.0000 0.0000 0.0000
vn 0.0000 0.0000 -1.0000
s off
f 1/1/1 5/2/1 7/3/1 3/4/1
f 4/5/2 3/6/2 7/7/2 8/8/2
f 8/9/3 7/3/3 5/10/3 6/11/3
f 6/12/4 2/13/4 4/14/4 8/15/4
f 2/16/5 1/17/5 3/4/5 4/18/5
f 6/12/6 5/19/6 1/20/6 2/13/6
