# Blender v2.80 (sub 75) OBJ File: 'BossRoom.blend'
# www.blender.org
o Icosphere
v 1.373098 5.904068 19.887980
v -1.526902 5.904068 19.887980
v -1.526902 0.004068 19.887978
v 1.373098 0.004068 19.887978
v -1.526902 5.904074 -19.912020
v 1.373098 5.904074 -19.912020
v 1.373098 0.004075 -19.912022
v -1.526902 0.004075 -19.912022
v -19.926901 5.904071 1.387978
v -19.926901 5.904071 -1.412022
v -19.926901 0.004072 -1.412023
v -19.926901 0.004071 1.387977
v 20.073099 0.004072 -1.412023
v 20.073099 5.904071 -1.412022
v 20.073099 5.904071 1.387978
v 20.073099 0.004071 1.387977
v 3.848302 6.226889 11.844058
v -10.075185 6.226885 7.319964
v -10.075185 6.226885 -7.319964
v 3.848302 6.226889 -11.844058
v 12.453589 6.226830 -0.000000
v 0.000000 13.923552 -0.000000
v 13.242105 -0.000000 4.302553
v 13.242105 -0.000000 -4.302553
v 0.000000 -0.000000 13.923552
v 8.184064 -0.000000 11.264386
v -13.242105 -0.000000 4.302553
v -8.184063 -0.000000 11.264386
v -8.184064 -0.000000 -11.264386
v -13.242105 -0.000000 -4.302553
v 8.184063 -0.000000 -11.264386
v 0.000000 -0.000000 -13.923552
v 9.582041 7.320116 6.961733
v -3.660068 7.320137 11.264316
v -11.844039 7.320111 -0.000000
v -3.660068 7.320137 -11.264316
v 9.582041 7.320116 -6.961733
v 2.261958 11.844130 6.961709
v 7.320025 11.844091 -0.000000
v -5.922003 11.844129 4.302536
v -5.922003 11.844129 -4.302536
v 2.261958 11.844130 -6.961709
v 13.242105 -20.000000 -4.302553
v 8.184063 -20.000000 -11.264386
v 0.000000 -20.000000 -13.923552
v -8.184064 -20.000000 -11.264386
v -13.242105 -20.000000 -4.302553
v -13.242105 -20.000000 4.302553
v -8.184063 -20.000000 11.264386
v 0.000000 -20.000000 13.923552
v 8.184064 -20.000000 11.264386
v 13.242105 -20.000000 4.302553
v -13.241324 0.004072 -1.412023
v -13.241324 0.004071 1.424312
v -12.308500 4.888244 1.429382
v -11.937055 5.904071 1.431401
v -1.526902 0.004070 13.426613
v -1.526902 3.053803 12.814176
v -1.526902 5.904069 11.816119
v -1.526902 3.053804 -12.814176
v -1.526902 0.004074 -13.426614
v 1.373098 5.904073 -11.892178
v -1.526902 5.904073 -11.816115
v -11.942794 5.904071 -1.412022
v -12.302859 4.917780 -1.412022
v -12.114488 5.904072 0.832308
v -12.114489 5.904070 -0.832309
v 1.373098 5.904069 11.892179
v 1.373098 2.221792 13.181576
v -0.002037 0.004074 -13.922072
v 0.002518 0.004074 -13.922192
v 1.373098 0.004074 -13.476862
v 1.373098 2.221792 -13.181576
v -0.002035 0.004069 13.922072
v 0.002515 0.004069 13.922193
v 1.373098 0.004070 13.476863
v 12.073362 5.904071 -1.412022
v 12.712366 4.183293 -1.412022
v 12.494461 5.904071 -0.223017
v 12.494461 5.904071 0.223017
v 13.241589 0.004071 1.424509
v 12.066717 5.904071 1.430793
v 12.715172 4.161147 1.427325
v 13.241589 0.004072 -1.412023
vt 0.818181 0.314921
vt 0.727272 0.314921
vt 0.772726 0.393651
vt 1.000000 0.314921
vt 0.909091 0.314921
vt 0.954545 0.393651
vt 0.272727 0.314921
vt 0.181818 0.314921
vt 0.227273 0.393651
vt 0.454545 0.314921
vt 0.363636 0.314921
vt 0.409090 0.393651
vt 0.636363 0.314921
vt 0.545454 0.314921
vt 0.590909 0.393651
vt 0.500000 0.393651
vt 0.545454 0.472382
vt 0.318182 0.393651
vt 0.363636 0.472382
vt 0.136363 0.393651
vt 0.181818 0.472382
vt 0.090909 0.314921
vt 0.863635 0.393651
vt 0.909090 0.472382
vt 0.681818 0.393651
vt 0.727272 0.472382
vt 0.590909 0.236191
vt 0.634007 0.310840
vt 0.618771 0.308710
vt 0.621446 0.289083
vt 0.500000 0.236191
vt 0.409090 0.236191
vt 0.409065 0.236235
vt 0.409120 0.236243
vt 0.318182 0.236191
vt 0.390128 0.269035
vt 0.392127 0.236235
vt 0.227273 0.236191
vt 0.196735 0.289083
vt 0.197914 0.300712
vt 0.190611 0.299691
vt 0.136363 0.236191
vt 0.166717 0.288766
vt 0.166771 0.236235
vt 0.196735 0.236235
vt 0.173025 0.299691
vt 0.165478 0.300746
vt 0.954545 0.236191
vt 0.863635 0.236191
vt 0.863661 0.236235
vt 0.880599 0.236235
vt 0.882598 0.269035
vt 0.863606 0.236242
vt 0.772726 0.236191
vt 0.681818 0.236191
vt 0.651442 0.288803
vt 0.654196 0.308677
vt 0.638719 0.310840
vt 0.424345 0.236243
vt 0.425309 0.264282
vt 0.045454 0.236191
vt 0.136363 0.236191
vt 0.045454 0.236191
vt 0.847417 0.264282
vt 0.848381 0.236242
vt 0.621446 0.236242
vt 0.651412 0.236242
vt 0.590909 0.236191
vt 0.681818 0.236191
vt 0.772726 0.236191
vt 0.863635 0.236191
vt 0.227273 0.236191
vt 0.318182 0.236191
vt 0.409090 0.236191
vt 0.500000 0.236191
vt 0.954545 0.236191
vt 0.883077 0.302098
vt 0.848035 0.306997
vt 0.424691 0.306997
vt 0.389648 0.302103
vt 1.100000 6.200001
vt -1.800000 6.200001
vt -1.800000 0.300000
vt 1.100000 0.300000
vt 1.800000 6.200001
vt -1.100000 6.200001
vt -1.100000 0.300000
vt 1.800000 0.300000
vt 20.000000 0.300000
vt 20.000000 6.200001
vt 11.980156 6.200001
vt 13.269553 2.517719
vt 13.564839 0.300000
vt -1.800000 -20.000000
vt 1.100000 -20.000000
vt 1.100000 -13.564839
vt -0.270580 -14.010170
vt -0.275135 -14.010049
vt -1.800000 -13.514592
vt 19.799999 6.200001
vt 11.728140 6.200001
vt 12.726197 3.349735
vt 13.338635 0.300000
vt 19.799999 0.300000
vt 1.300000 6.200001
vt -1.500000 6.200001
vt -1.500000 0.300000
vt 1.300000 0.300000
vt 1.500000 0.300000
vt 1.500000 6.200001
vt -1.300000 6.200001
vt -1.300000 0.300000
vt 1.800000 19.799999
vt -1.100000 19.799999
vt -1.100000 11.804200
vt 1.800000 11.728140
vt -20.200001 1.300000
vt -20.200001 -1.500000
vt -13.514422 -1.500000
vt -13.514422 1.336335
vt 20.200001 0.300000
vt 20.200001 6.200001
vt 12.215892 6.200001
vt 12.575958 5.213709
vt 13.514422 0.300000
vt -20.192640 6.200001
vt -20.192640 0.300000
vt -13.506962 0.300000
vt -12.574123 5.184174
vt -12.202673 6.200001
vt 20.200001 -1.500000
vt 20.200001 1.300000
vt 12.210153 1.343423
vt 12.387586 0.744330
vt 12.387587 -0.920287
vt 12.215892 -1.500000
vt 19.792761 0.300000
vt 19.792761 6.200001
vt 11.786265 6.200001
vt 12.434730 4.457077
vt 12.961155 0.300000
vt -19.799999 1.300000
vt -19.799999 -1.500000
vt -11.800263 -1.500000
vt -12.221362 -0.310995
vt -12.221361 0.135039
vt -11.793616 1.342815
vt -19.799999 6.200001
vt -19.799999 0.300000
vt -12.968490 0.300000
vt -12.439266 4.479223
vt -11.800263 6.200001
vt 19.799999 -1.500000
vt 19.799999 1.300000
vt 12.968490 1.336532
vt 12.968490 -1.500000
vt -13.388885 0.300000
vt -13.093597 2.517724
vt -11.804200 6.200001
vt -19.799999 6.200001
vt -19.799999 0.300000
vt 1.800000 -11.904096
vt -1.100000 -11.980156
vt -1.100000 -20.000000
vt 1.800000 -20.000000
vt -13.514592 0.300000
vt -12.902155 3.349731
vt -11.904096 6.200001
vt -20.000000 6.200001
vt -20.000000 0.300000
vt -1.800000 13.338635
vt -0.275133 13.834095
vt -0.270584 13.834215
vt 1.100000 13.388885
vt 1.100000 19.799999
vt -1.800000 19.799999
vn 0.4089 0.6617 0.6284
vn -0.4713 0.6617 0.5831
vn -0.7002 0.6617 -0.2680
vn 0.0385 0.6617 -0.7488
vn 0.7240 0.6617 -0.1947
vn 0.2680 0.9435 -0.1947
vn 0.4911 0.7947 -0.3568
vn 0.4089 0.6617 -0.6284
vn -0.1024 0.9435 -0.3151
vn -0.1876 0.7947 -0.5773
vn -0.4713 0.6617 -0.5831
vn -0.3313 0.9435 0.0000
vn -0.6071 0.7947 0.0000
vn -0.7002 0.6617 0.2680
vn -0.1024 0.9435 0.3151
vn -0.1876 0.7947 0.5773
vn 0.0385 0.6617 0.7488
vn 0.2680 0.9435 0.1947
vn 0.4911 0.7947 0.3568
vn 0.7240 0.6617 0.1947
vn 0.8897 0.3304 -0.3151
vn 0.7947 0.1876 -0.5773
vn 0.5746 0.3304 -0.7488
vn -0.0251 0.3302 -0.9436
vn -0.3035 0.1876 -0.9342
vn -0.5346 0.3304 -0.7779
vn -0.9050 0.3304 -0.2680
vn -0.9822 0.1876 0.0000
vn -0.9050 0.3304 0.2680
vn -0.5346 0.3304 0.7779
vn -0.3035 0.1876 0.9342
vn -0.0253 0.3305 0.9435
vn 0.5746 0.3304 0.7488
vn 0.7947 0.1876 0.5773
vn 0.8897 0.3304 0.3151
vn 0.3066 0.1256 -0.9435
vn -0.8026 0.1256 -0.5831
vn -0.8090 0.0000 0.5878
vn -0.8026 0.1256 0.5831
vn 0.3066 0.1256 0.9435
vn 0.9921 0.1256 0.0000
vn 0.0000 -1.0000 -0.0000
vn -1.0000 0.0000 0.0000
vn -0.3090 0.0000 -0.9511
vn 0.8090 0.0000 -0.5878
vn 0.3090 0.0000 0.9511
vn 0.3090 0.0000 -0.9511
vn 1.0000 0.0000 0.0000
vn -0.8090 0.0000 -0.5878
vn 0.8090 0.0000 0.5878
vn -0.3090 0.0000 0.9511
vn -0.0247 0.3304 0.9435
vn -0.0247 0.3304 -0.9435
vn 0.5773 0.5773 0.5773
vn -0.5773 0.5773 0.5773
vn -0.5773 -0.5773 0.5773
vn 0.5773 -0.5773 0.5773
vn -0.5773 0.5773 -0.5773
vn 0.5773 0.5773 -0.5773
vn 0.5773 -0.5773 -0.5773
vn -0.5773 -0.5773 -0.5773
vn 0.4188 0.7427 -0.5224
vn 0.7802 0.1049 -0.6166
vn 0.7649 -0.3670 -0.5293
vn 0.1685 -0.5749 -0.8007
vn -0.1780 -0.5605 -0.8088
vn -0.7834 -0.3289 -0.5274
vn -0.4489 0.7268 0.5199
vn -0.7882 0.1334 0.6008
vn -0.7834 -0.3289 0.5274
vn -0.5788 0.5776 0.5756
vn -0.5788 -0.5776 0.5756
vn 0.5787 0.5776 0.5756
vn 0.5787 -0.5776 0.5756
vn 0.4188 0.7427 0.5224
vn -0.5788 -0.4787 -0.6601
vn -0.5820 -0.4760 0.6592
vn -0.4862 0.6453 -0.5892
vn -0.6020 0.2009 -0.7728
vn -0.6042 0.2005 0.7712
vn -0.4884 0.6436 0.5893
vn -0.6052 0.7877 0.1147
vn -0.6052 0.7877 -0.1147
vn 0.4777 0.6272 0.6151
vn 0.5976 0.1899 0.7790
vn 0.5840 -0.5095 0.6319
vn 0.4756 0.6288 -0.6151
vn 0.6094 0.7800 -0.1423
vn 0.6094 0.7800 0.1423
vn 0.5810 -0.5121 -0.6326
vn 0.5954 0.1903 -0.7805
vn 0.7649 -0.3670 0.5293
vn 0.7802 0.1049 0.6166
vn -0.4489 0.7268 -0.5199
vn -0.7882 0.1334 -0.6008
vn -0.1781 -0.5605 0.8087
vn 0.1684 -0.5748 0.8007
s off
f 17/1/1 33/2/1 38/3/1
f 18/4/2 34/5/2 40/6/2
f 19/7/3 35/8/3 41/9/3
f 20/10/4 36/11/4 42/12/4
f 21/13/5 37/14/5 39/15/5
f 39/15/6 42/16/6 22/17/6
f 39/15/7 37/14/7 42/16/7
f 37/14/8 20/10/8 42/16/8
f 42/12/9 41/18/9 22/19/9
f 42/12/10 36/11/10 41/18/10
f 36/11/11 19/7/11 41/18/11
f 41/9/12 40/20/12 22/21/12
f 41/9/13 35/8/13 40/20/13
f 35/8/14 18/22/14 40/20/14
f 40/6/15 38/23/15 22/24/15
f 40/6/16 34/5/16 38/23/16
f 34/5/17 17/1/17 38/23/17
f 38/3/18 39/25/18 22/26/18
f 38/3/19 33/2/19 39/25/19
f 33/2/20 21/13/20 39/25/20
f 24/27/21 37/14/21 21/13/21 79/28/21 77/29/21 78/30/21
f 24/27/22 31/31/22 37/14/22
f 31/31/23 20/10/23 37/14/23
f 32/32/24 70/33/24 71/34/24
f 32/32/25 29/35/25 36/11/25 60/36/25 61/37/25 70/33/25
f 29/35/26 19/7/26 36/11/26
f 30/38/27 65/39/27 64/40/27 67/41/27 35/8/27 19/7/27
f 30/38/28 27/42/28 55/43/28 54/44/28 53/45/28 65/39/28
f 27/42/29 18/22/29 35/8/29 66/46/29 56/47/29 55/43/29
f 28/48/30 34/5/30 18/4/30
f 28/48/31 25/49/31 74/50/31 57/51/31 58/52/31 34/5/31
f 25/49/32 75/53/32 74/50/32
f 26/54/33 33/2/33 17/1/33
f 26/54/34 23/55/34 33/2/34
f 23/55/35 83/56/35 82/57/35 80/58/35 21/13/35 33/2/35
f 31/31/36 32/32/36 71/34/36 72/59/36 73/60/36 20/10/36
f 29/35/37 30/38/37 19/7/37
f 28/61/38 27/42/38 48/62/38 49/63/38
f 27/42/39 28/61/39 18/22/39
f 25/49/40 26/54/40 17/1/40 69/64/40 76/65/40 75/53/40
f 23/55/41 24/27/41 78/30/41 84/66/41 81/67/41 83/56/41
f 43/68/42 52/69/42 51/70/42 50/71/42 49/63/42 48/62/42 47/72/42 46/73/42 45/74/42 44/75/42
f 27/42/43 30/38/43 47/72/43 48/62/43
f 29/35/44 32/32/44 45/74/44 46/73/44
f 31/31/45 24/27/45 43/68/45 44/75/45
f 26/54/46 25/49/46 50/71/46 51/70/46
f 32/32/47 31/31/47 44/75/47 45/74/47
f 24/27/48 23/55/48 52/69/48 43/68/48
f 30/38/49 29/35/49 46/73/49 47/72/49
f 23/55/50 26/54/50 51/70/50 52/69/50
f 25/49/51 28/48/51 49/76/51 50/71/51
f 58/52/52 59/77/52 68/78/52 69/64/52 17/1/52 34/5/52
f 80/58/41 79/28/41 21/13/41
f 73/60/53 62/79/53 63/80/53 60/36/53 36/11/53 20/10/53
f 67/41/28 66/46/28 35/8/28
s 1
f 1/81/54 2/82/55 3/83/56 4/84/57
f 5/85/58 6/86/59 7/87/60 8/88/61
f 7/89/60 6/90/59 62/91/62 73/92/63 72/93/64
f 8/94/61 7/95/60 72/96/64 71/97/65 70/98/66 61/99/67
f 2/100/55 59/101/68 58/102/69 57/103/70 3/104/56
f 9/105/71 10/106/58 11/107/61 12/108/72
f 13/109/60 14/110/59 15/111/73 16/112/74
f 2/113/55 1/114/54 68/115/75 59/116/68
f 12/117/72 11/118/61 53/119/76 54/120/77
f 11/121/61 10/122/58 64/123/78 65/124/79 53/125/76
f 9/126/71 12/127/72 54/128/77 55/129/80 56/130/81
f 10/131/58 9/132/71 56/133/81 66/134/82 67/135/83 64/136/78
f 16/137/74 15/138/73 82/139/84 83/140/85 81/141/86
f 15/142/73 14/143/59 77/144/87 79/145/88 80/146/89 82/147/84
f 14/148/59 13/149/60 84/150/90 78/151/91 77/152/87
f 13/153/60 16/154/74 81/155/86 84/156/90
f 76/157/92 69/158/93 68/159/75 1/160/54 4/161/57
f 63/162/94 62/163/62 6/164/59 5/165/58
f 61/166/67 60/167/95 63/168/94 5/169/58 8/170/61
f 57/171/70 74/172/96 75/173/97 76/174/92 4/175/57 3/176/56
