# This file uses centimeters as units for non-parametric coordinates.

mtllib SM_pipe_stright.mtl
g default
v 44.999977 0.000000 25.022455
v 44.999977 0.000000 474.977539
v 43.177162 12.677966 474.977539
v 43.177162 12.677966 25.022455
v 37.856392 24.328840 474.977539
v 37.856392 24.328840 25.022455
v 29.468712 34.008736 474.977539
v 29.468712 34.008736 25.022455
v 18.693657 40.933445 474.977539
v 18.693657 40.933445 25.022455
v 6.404152 44.541969 474.977509
v 6.404152 44.541969 25.022425
v -6.404152 44.541965 474.977509
v -6.404152 44.541965 25.022425
v -18.693672 40.933437 474.977509
v -18.693672 40.933437 25.022425
v -29.468727 34.008728 474.977509
v -29.468727 34.008728 25.022425
v -37.856392 24.328829 474.977509
v -37.856392 24.328829 25.022425
v -43.177162 12.677953 474.977509
v -43.177162 12.677953 25.022425
v -44.999977 -0.000016 474.977509
v -44.999977 -0.000016 25.022425
v -43.177162 -12.677984 474.977509
v -43.177162 -12.677984 25.022425
v -37.856392 -24.328856 474.977509
v -37.856392 -24.328856 25.022425
v -29.468697 -34.008751 474.977509
v -29.468697 -34.008751 25.022425
v -18.693642 -40.933456 474.977509
v -18.693642 -40.933456 25.022425
v -6.404121 -44.541973 474.977509
v -6.404121 -44.541973 25.022425
v 6.404182 -44.541965 474.977509
v 6.404182 -44.541965 25.022425
v 18.693687 -40.933430 474.977539
v 18.693687 -40.933430 25.022455
v 29.468727 -34.008717 474.977539
v 29.468727 -34.008717 25.022455
v 37.856407 -24.328815 474.977539
v 37.856407 -24.328815 25.022455
v 43.177177 -12.677941 474.977539
v 43.177177 -12.677941 25.022455
v 52.674431 15.466610 474.977539
v 54.898201 0.000005 474.977539
v 52.674431 15.466610 500.000061
v 54.898201 0.000005 500.000061
v 46.183296 29.680218 474.977539
v 46.183296 29.680218 500.000061
v 35.950661 41.489307 474.977539
v 35.950661 41.489307 500.000061
v 22.805519 49.937180 474.977539
v 22.805519 49.937180 500.000061
v 7.812813 54.339436 474.977509
v 7.812813 54.339436 500.000031
v -7.812813 54.339432 474.977509
v -7.812813 54.339432 500.000031
v -22.805550 49.937172 474.977509
v -22.805550 49.937172 500.000031
v -35.950691 41.489296 474.977509
v -35.950691 41.489296 500.000031
v -46.183296 29.680202 474.977509
v -46.183296 29.680202 500.000031
v -52.674416 15.466599 474.977509
v -52.674416 15.466599 500.000031
v -54.898170 -0.000016 474.977509
v -54.898170 -0.000016 500.000031
v -52.674416 -15.466631 474.977509
v -52.674416 -15.466631 500.000031
v -46.183296 -29.680233 474.977509
v -46.183296 -29.680233 500.000031
v -35.950661 -41.489323 474.977509
v -35.950661 -41.489323 500.000031
v -22.805519 -49.937191 474.977509
v -22.805519 -49.937191 500.000031
v -7.812782 -54.339439 474.977509
v -7.812782 -54.339439 500.000031
v 7.812843 -54.339428 474.977509
v 7.812843 -54.339428 500.000031
v 22.805550 -49.937157 474.977539
v 22.805550 -49.937157 500.000061
v 35.950676 -41.489285 474.977539
v 35.950676 -41.489285 500.000061
v 46.183311 -29.680191 474.977539
v 46.183311 -29.680191 500.000061
v 52.674446 -15.466579 474.977539
v 52.674446 -15.466579 500.000061
v 54.898201 0.000006 -0.000067
v 52.674446 15.466607 -0.000068
v 52.674446 15.466607 25.022455
v 54.898201 0.000006 25.022455
v 46.183311 29.680208 -0.000070
v 46.183311 29.680208 25.022455
v 35.950661 41.489311 -0.000072
v 35.950661 41.489311 25.022455
v 22.805519 49.937180 -0.000076
v 22.805519 49.937180 25.022455
v 7.812813 54.339436 -0.000080
v 7.812813 54.339436 25.022425
v -7.812813 54.339432 -0.000084
v -7.812813 54.339432 25.022425
v -22.805550 49.937172 -0.000088
v -22.805550 49.937172 25.022425
v -35.950691 41.489292 -0.000092
v -35.950691 41.489292 25.022425
v -46.183296 29.680197 -0.000094
v -46.183296 29.680197 25.022425
v -52.674416 15.466606 -0.000096
v -52.674416 15.466606 25.022425
v -54.898170 -0.000016 -0.000097
v -54.898170 -0.000016 25.022425
v -52.674416 -15.466639 -0.000096
v -52.674416 -15.466639 25.022425
v -46.183296 -29.680233 -0.000094
v -46.183296 -29.680233 25.022425
v -35.950661 -41.489323 -0.000092
v -35.950661 -41.489323 25.022425
v -22.805519 -49.937191 -0.000088
v -22.805519 -49.937191 25.022425
v -7.812782 -54.339439 -0.000084
v -7.812782 -54.339439 25.022425
v 7.812843 -54.339428 -0.000080
v 7.812843 -54.339428 25.022425
v 22.805565 -49.937157 -0.000076
v 22.805565 -49.937157 25.022455
v 35.950691 -41.489288 -0.000072
v 35.950691 -41.489288 25.022455
v 46.183311 -29.680191 -0.000070
v 46.183311 -29.680191 25.022455
v 52.674446 -15.466582 -0.000068
v 52.674446 -15.466582 25.022455
vt -1.920153 0.649893
vt -1.917134 0.357044
vt -1.908639 0.357115
vt -1.911660 0.650014
vt -1.928640 0.649753
vt -1.925624 0.356993
vt -1.937121 0.649584
vt -1.934107 0.356973
vt -1.945591 0.649374
vt -1.942578 0.357000
vt -1.954043 0.649102
vt -1.951028 0.357099
vt -1.962464 0.648732
vt -1.959442 0.357318
vt -1.970824 0.648144
vt -1.781489 0.359754
vt -1.792870 0.650581
vt -1.789849 0.359166
vt -1.801283 0.650799
vt -1.798269 0.358796
vt -1.809734 0.650898
vt -1.806721 0.358525
vt -1.818205 0.650926
vt -1.815191 0.358314
vt -1.826688 0.650906
vt -1.823672 0.358146
vt -1.835178 0.650855
vt -1.832159 0.358006
vt -1.843673 0.650783
vt -1.840652 0.357884
vt -1.852170 0.650700
vt -1.849147 0.357775
vt -1.860669 0.650611
vt -1.857645 0.357672
vt -1.869169 0.650517
vt -1.866143 0.357574
vt -1.877669 0.650422
vt -1.874643 0.357477
vt -1.886168 0.650325
vt -1.883143 0.357382
vt -1.894667 0.650226
vt -1.891642 0.357288
vt -1.903165 0.650124
vt -1.900142 0.357198
vt -1.917070 0.350662
vt -1.925626 0.350592
vt -1.925725 0.334278
vt -1.917042 0.334365
vt -1.934215 0.350552
vt -1.934523 0.334226
vt -1.942863 0.350564
vt -1.943492 0.334252
vt -1.951626 0.350670
vt -1.952711 0.334434
vt -1.960658 0.350956
vt -1.962257 0.334882
vt -1.778840 0.354134
vt -1.776343 0.337917
vt -1.788369 0.352996
vt -1.786298 0.336894
vt -1.797357 0.352436
vt -1.795854 0.336240
vt -1.806106 0.352116
vt -1.805075 0.335852
vt -1.814748 0.351905
vt -1.814049 0.335616
vt -1.823333 0.351749
vt -1.822853 0.335458
vt -1.831887 0.351623
vt -1.831545 0.335338
vt -1.840422 0.351514
vt -1.840162 0.335236
vt -1.848944 0.351413
vt -1.848732 0.335141
vt -1.857458 0.351317
vt -1.857271 0.335049
vt -1.865968 0.351221
vt -1.865793 0.334956
vt -1.874476 0.351126
vt -1.874306 0.334862
vt -1.882984 0.351030
vt -1.882819 0.334766
vt -1.891495 0.350934
vt -1.891338 0.334667
vt -1.900010 0.350839
vt -1.899871 0.334566
vt -1.908533 0.350747
vt -1.908434 0.334464
vt -1.920768 0.672561
vt -1.929459 0.672441
vt -1.928979 0.656150
vt -1.920425 0.656275
vt -1.938264 0.672283
vt -1.937564 0.655994
vt -1.947237 0.672046
vt -1.946206 0.655782
vt -1.956458 0.671658
vt -1.954956 0.655462
vt -1.966014 0.671004
vt -1.963943 0.654902
vt -1.975969 0.669981
vt -1.781960 0.656115
vt -1.790055 0.673016
vt -1.791654 0.656942
vt -1.799601 0.673464
vt -1.800686 0.657228
vt -1.808819 0.673647
vt -1.809449 0.657334
vt -1.817789 0.673673
vt -1.818096 0.657347
vt -1.826586 0.673621
vt -1.826686 0.657307
vt -1.835269 0.673534
vt -1.835242 0.657237
vt -1.843878 0.673435
vt -1.843778 0.657152
vt -1.852440 0.673333
vt -1.852302 0.657060
vt -1.860975 0.673232
vt -1.860817 0.656965
vt -1.869493 0.673133
vt -1.869328 0.656869
vt -1.878006 0.673037
vt -1.877836 0.656773
vt -1.886519 0.672943
vt -1.886344 0.656678
vt -1.895041 0.672850
vt -1.894854 0.656582
vt -1.903581 0.672757
vt -1.903368 0.656485
vt -1.912150 0.672663
vt -1.911890 0.656384
vt -1.780199 0.672366
vt -1.973472 0.653764
vt -1.784529 0.650129
vt -1.970352 0.351783
vt -1.972113 0.335532
vt -1.967783 0.357769
vn 1.000000 0.000001 0.000000
vn 1.000000 0.000001 0.000000
vn 0.959493 -0.281732 0.000000
vn 0.959493 -0.281732 0.000000
vn 0.959493 0.281733 0.000000
vn 0.959493 0.281733 0.000000
vn 0.841254 0.540641 0.000000
vn 0.841254 0.540641 0.000000
vn 0.654861 0.755749 0.000000
vn 0.654861 0.755749 0.000000
vn 0.415415 0.909632 0.000000
vn 0.415415 0.909632 0.000000
vn 0.142315 0.989822 0.000000
vn 0.142315 0.989821 0.000000
vn -0.142315 0.989821 0.000000
vn -0.142315 0.989821 0.000000
vn -0.415415 0.909632 0.000000
vn -0.415415 0.909632 0.000000
vn -0.654861 0.755749 0.000000
vn -0.654861 0.755749 0.000000
vn -0.841254 0.540640 0.000000
vn -0.841254 0.540640 0.000000
vn -0.959493 0.281733 0.000000
vn -0.959493 0.281733 0.000000
vn -1.000000 0.000000 0.000000
vn -1.000000 0.000000 0.000000
vn -0.959493 -0.281733 0.000000
vn -0.959493 -0.281733 0.000000
vn -0.841253 -0.540641 0.000000
vn -0.841253 -0.540641 0.000000
vn -0.654860 -0.755750 0.000000
vn -0.654860 -0.755750 0.000000
vn -0.415414 -0.909632 0.000000
vn -0.415414 -0.909632 0.000000
vn -0.142314 -0.989822 0.000000
vn -0.142314 -0.989822 0.000000
vn 0.142316 -0.989821 0.000000
vn 0.142316 -0.989821 0.000000
vn 0.415416 -0.909632 0.000000
vn 0.415416 -0.909632 0.000000
vn 0.654861 -0.755749 0.000000
vn 0.654861 -0.755749 0.000000
vn 0.841254 -0.540641 0.000000
vn 0.841254 -0.540641 0.000000
vn 1.000000 0.000001 0.000000
vn 0.959493 0.281733 0.000000
vn 0.959493 0.281733 0.000000
vn 1.000000 0.000001 0.000000
vn 0.841254 0.540641 0.000000
vn 0.841254 0.540641 0.000000
vn 0.654860 0.755750 0.000000
vn 0.654860 0.755750 0.000000
vn 0.415415 0.909632 0.000000
vn 0.415415 0.909632 0.000000
vn 0.142315 0.989821 0.000000
vn 0.142315 0.989821 0.000000
vn -0.142315 0.989821 0.000000
vn -0.142315 0.989821 0.000000
vn -0.415415 0.909632 0.000000
vn -0.415415 0.909632 0.000000
vn -0.654861 0.755749 0.000000
vn -0.654861 0.755749 0.000000
vn -0.841254 0.540640 0.000000
vn -0.841254 0.540640 0.000000
vn -0.959493 0.281732 0.000000
vn -0.959493 0.281732 0.000000
vn -1.000000 0.000000 0.000000
vn -1.000000 0.000000 0.000000
vn -0.959493 -0.281732 0.000000
vn -0.959493 -0.281732 0.000000
vn -0.841254 -0.540640 0.000000
vn -0.841254 -0.540640 0.000000
vn -0.654861 -0.755749 0.000000
vn -0.654861 -0.755749 0.000000
vn -0.415415 -0.909632 0.000000
vn -0.415415 -0.909632 0.000000
vn -0.142314 -0.989822 0.000000
vn -0.142314 -0.989822 0.000000
vn 0.142316 -0.989821 0.000000
vn 0.142316 -0.989821 0.000000
vn 0.415416 -0.909632 0.000000
vn 0.415416 -0.909632 0.000000
vn 0.654861 -0.755749 0.000000
vn 0.654861 -0.755749 0.000000
vn 0.841254 -0.540641 0.000000
vn 0.841254 -0.540641 0.000000
vn 0.959493 -0.281732 0.000000
vn 0.959493 -0.281732 0.000000
vn 1.000000 0.000000 0.000000
vn 0.959493 0.281732 0.000000
vn 0.959493 0.281732 0.000000
vn 1.000000 0.000000 0.000000
vn 0.841254 0.540640 0.000000
vn 0.841254 0.540640 0.000000
vn 0.654861 0.755750 0.000000
vn 0.654861 0.755750 0.000000
vn 0.415415 0.909632 0.000000
vn 0.415415 0.909632 0.000000
vn 0.142315 0.989821 0.000000
vn 0.142315 0.989821 0.000000
vn -0.142315 0.989821 0.000000
vn -0.142315 0.989821 0.000000
vn -0.415415 0.909632 0.000000
vn -0.415415 0.909632 0.000000
vn -0.654862 0.755749 0.000000
vn -0.654862 0.755749 0.000000
vn -0.841254 0.540640 0.000000
vn -0.841254 0.540640 0.000000
vn -0.959493 0.281733 0.000000
vn -0.959493 0.281733 0.000000
vn -1.000000 0.000000 0.000000
vn -1.000000 0.000000 0.000000
vn -0.959493 -0.281733 0.000000
vn -0.959493 -0.281733 0.000000
vn -0.841254 -0.540640 0.000000
vn -0.841254 -0.540640 0.000000
vn -0.654861 -0.755749 0.000000
vn -0.654861 -0.755750 0.000000
vn -0.415414 -0.909632 0.000000
vn -0.415414 -0.909632 0.000000
vn -0.142314 -0.989822 0.000000
vn -0.142314 -0.989822 0.000000
vn 0.142316 -0.989821 0.000000
vn 0.142316 -0.989821 0.000000
vn 0.415415 -0.909632 0.000000
vn 0.415416 -0.909632 0.000000
vn 0.654861 -0.755749 0.000000
vn 0.654861 -0.755749 0.000000
vn 0.841254 -0.540640 0.000000
vn 0.841254 -0.540640 0.000000
vn 0.959493 -0.281732 0.000000
vn 0.959493 -0.281732 0.000000
vn 0.000001 0.000000 -1.000000
vn 0.000001 0.000000 -1.000000
vn 0.000001 0.000000 -1.000000
vn 0.000001 0.000000 -1.000000
vn 0.000002 0.000000 -1.000000
vn 0.000002 0.000000 -1.000000
vn 0.000002 0.000000 -1.000000
vn 0.000002 0.000000 -1.000000
vn 0.000000 0.000000 -1.000000
vn 0.000000 0.000000 -1.000000
vn 0.000000 0.000000 -1.000000
vn 0.000000 0.000000 -1.000000
vn -0.000002 0.000000 -1.000000
vn -0.000002 0.000000 -1.000000
vn -0.000002 0.000000 -1.000000
vn -0.000002 0.000000 -1.000000
vn 0.000004 -0.000001 -1.000000
vn 0.000004 -0.000001 -1.000000
vn 0.000004 -0.000001 -1.000000
vn 0.000004 -0.000001 -1.000000
vn 0.000000 0.000000 -1.000000
vn 0.000000 0.000000 -1.000000
vn 0.000000 0.000000 -1.000000
vn 0.000000 0.000000 -1.000000
vn 0.000000 0.000000 -1.000000
vn 0.000000 0.000000 -1.000000
vn 0.000000 0.000000 -1.000000
vn 0.000000 0.000000 -1.000000
vn 0.000000 0.000000 -1.000000
vn 0.000000 0.000000 -1.000000
vn 0.000000 0.000000 -1.000000
vn 0.000000 0.000000 -1.000000
vn 0.000000 0.000000 -1.000000
vn 0.000000 0.000000 -1.000000
vn 0.000000 0.000000 -1.000000
vn 0.000000 0.000000 -1.000000
vn 0.000004 0.000000 -1.000000
vn 0.000004 0.000000 -1.000000
vn 0.000004 0.000000 -1.000000
vn 0.000004 0.000000 -1.000000
vn 0.000000 0.000000 -1.000000
vn 0.000000 0.000000 -1.000000
vn 0.000000 0.000000 -1.000000
vn 0.000000 0.000000 -1.000000
vn 0.000000 0.000000 -1.000000
vn 0.000000 0.000000 -1.000000
vn 0.000000 0.000000 -1.000000
vn 0.000000 0.000000 -1.000000
vn 0.000000 0.000000 -1.000000
vn 0.000000 0.000000 -1.000000
vn 0.000000 0.000000 -1.000000
vn 0.000000 0.000000 -1.000000
vn 0.000002 0.000000 -1.000000
vn 0.000002 0.000000 -1.000000
vn 0.000002 0.000000 -1.000000
vn 0.000002 0.000000 -1.000000
vn -0.000002 0.000000 -1.000000
vn -0.000002 0.000000 -1.000000
vn -0.000002 0.000000 -1.000000
vn -0.000002 0.000000 -1.000000
vn 0.000000 0.000000 -1.000000
vn 0.000000 0.000000 -1.000000
vn 0.000000 0.000000 -1.000000
vn 0.000000 0.000000 -1.000000
vn 0.000000 0.000000 -1.000000
vn 0.000000 0.000000 -1.000000
vn 0.000000 0.000000 -1.000000
vn 0.000000 0.000000 -1.000000
vn 0.000000 0.000001 -1.000000
vn 0.000000 0.000001 -1.000000
vn 0.000000 0.000001 -1.000000
vn 0.000000 0.000001 -1.000000
vn 0.000004 0.000000 -1.000000
vn 0.000004 0.000000 -1.000000
vn 0.000004 0.000000 -1.000000
vn 0.000004 0.000000 -1.000000
vn -0.000002 0.000000 -1.000000
vn -0.000002 0.000000 -1.000000
vn -0.000002 0.000000 -1.000000
vn -0.000002 0.000000 -1.000000
vn 0.000004 0.000000 -1.000000
vn 0.000004 0.000000 -1.000000
vn 0.000004 0.000000 -1.000000
vn 0.000004 0.000000 -1.000000
vn 0.000004 0.000000 -1.000000
vn 0.000004 0.000000 -1.000000
vn 0.000004 0.000000 -1.000000
vn 0.000004 0.000000 -1.000000
vn -0.000000 0.000000 1.000000
vn -0.000000 0.000000 1.000000
vn -0.000000 0.000000 1.000000
vn -0.000000 0.000000 1.000000
vn -0.000000 0.000000 1.000000
vn -0.000000 0.000000 1.000000
vn -0.000000 0.000000 1.000000
vn -0.000000 0.000000 1.000000
vn 0.000000 0.000000 1.000000
vn 0.000000 0.000000 1.000000
vn 0.000000 0.000000 1.000000
vn 0.000000 0.000000 1.000000
vn -0.000000 0.000000 1.000000
vn -0.000000 0.000000 1.000000
vn -0.000000 0.000000 1.000000
vn -0.000000 0.000000 1.000000
vn -0.000002 0.000001 1.000000
vn -0.000002 0.000001 1.000000
vn -0.000002 0.000001 1.000000
vn -0.000002 0.000001 1.000000
vn 0.000000 0.000000 1.000000
vn 0.000000 0.000000 1.000000
vn 0.000000 0.000000 1.000000
vn 0.000000 0.000000 1.000000
vn 0.000000 0.000000 1.000000
vn 0.000000 0.000000 1.000000
vn 0.000000 0.000000 1.000000
vn 0.000000 0.000000 1.000000
vn -0.000000 0.000000 1.000000
vn -0.000000 0.000000 1.000000
vn -0.000000 0.000000 1.000000
vn -0.000000 0.000000 1.000000
vn -0.000000 0.000000 1.000000
vn -0.000000 0.000000 1.000000
vn -0.000000 0.000000 1.000000
vn -0.000000 0.000000 1.000000
vn 0.000000 0.000000 1.000000
vn 0.000000 0.000000 1.000000
vn 0.000000 0.000000 1.000000
vn 0.000000 0.000000 1.000000
vn -0.000000 0.000000 1.000000
vn -0.000000 0.000000 1.000000
vn -0.000000 0.000000 1.000000
vn -0.000000 0.000000 1.000000
vn 0.000000 0.000000 1.000000
vn 0.000000 0.000000 1.000000
vn 0.000000 0.000000 1.000000
vn 0.000000 0.000000 1.000000
vn 0.000000 0.000000 1.000000
vn 0.000000 0.000000 1.000000
vn 0.000000 0.000000 1.000000
vn 0.000000 0.000000 1.000000
vn 0.000000 0.000000 1.000000
vn 0.000000 0.000000 1.000000
vn 0.000000 0.000000 1.000000
vn 0.000000 0.000000 1.000000
vn 0.000000 0.000000 1.000000
vn 0.000000 0.000000 1.000000
vn 0.000000 0.000000 1.000000
vn 0.000000 0.000000 1.000000
vn 0.000000 0.000000 1.000000
vn 0.000000 0.000000 1.000000
vn 0.000000 0.000000 1.000000
vn 0.000000 0.000000 1.000000
vn 0.000000 0.000000 1.000000
vn 0.000000 0.000000 1.000000
vn 0.000000 0.000000 1.000000
vn 0.000000 0.000000 1.000000
vn -0.000002 -0.000001 1.000000
vn -0.000002 -0.000001 1.000000
vn -0.000002 -0.000001 1.000000
vn -0.000002 -0.000001 1.000000
vn -0.000000 0.000000 1.000000
vn -0.000000 0.000000 1.000000
vn -0.000000 0.000000 1.000000
vn -0.000000 0.000000 1.000000
vn -0.000000 0.000000 1.000000
vn -0.000000 0.000000 1.000000
vn -0.000000 0.000000 1.000000
vn -0.000000 0.000000 1.000000
vn 0.000000 0.000000 1.000000
vn 0.000000 0.000000 1.000000
vn 0.000000 0.000000 1.000000
vn 0.000000 0.000000 1.000000
vn -0.000000 0.000000 1.000000
vn -0.000000 0.000000 1.000000
vn -0.000000 0.000000 1.000000
vn -0.000000 0.000000 1.000000
s 1
g pTorus2
usemtl initialShadingGroup
f 1/1/1 2/2/2 43/3/3 44/4/4
f 2/2/2 1/1/1 4/5/5 3/6/6
f 3/6/6 4/5/5 6/7/7 5/8/8
f 5/8/8 6/7/7 8/9/9 7/10/10
f 7/10/10 8/9/9 10/11/11 9/12/12
f 9/12/12 10/11/11 12/13/13 11/14/14
f 11/14/14 12/13/13 14/15/15 13/138/16
f 13/16/16 14/135/15 16/17/17 15/18/18
f 15/18/18 16/17/17 18/19/19 17/20/20
f 17/20/20 18/19/19 20/21/21 19/22/22
f 19/22/22 20/21/21 22/23/23 21/24/24
f 21/24/24 22/23/23 24/25/25 23/26/26
f 23/26/26 24/25/25 26/27/27 25/28/28
f 25/28/28 26/27/27 28/29/29 27/30/30
f 27/30/30 28/29/29 30/31/31 29/32/32
f 29/32/32 30/31/31 32/33/33 31/34/34
f 31/34/34 32/33/33 34/35/35 33/36/36
f 33/36/36 34/35/35 36/37/37 35/38/38
f 35/38/38 36/37/37 38/39/39 37/40/40
f 37/40/40 38/39/39 40/41/41 39/42/42
f 39/42/42 40/41/41 42/43/43 41/44/44
f 41/44/44 42/43/43 44/4/4 43/3/3
s 2
f 46/45/45 45/46/46 47/47/47 48/48/48
f 45/46/46 49/49/49 50/50/50 47/47/47
f 49/49/49 51/51/51 52/52/52 50/50/50
f 51/51/51 53/53/53 54/54/54 52/52/52
f 53/53/53 55/55/55 56/56/56 54/54/54
f 55/55/55 57/136/57 58/137/58 56/56/56
f 57/57/57 59/59/59 60/60/60 58/58/58
f 59/59/59 61/61/61 62/62/62 60/60/60
f 61/61/61 63/63/63 64/64/64 62/62/62
f 63/63/63 65/65/65 66/66/66 64/64/64
f 65/65/65 67/67/67 68/68/68 66/66/66
f 67/67/67 69/69/69 70/70/70 68/68/68
f 69/69/69 71/71/71 72/72/72 70/70/70
f 71/71/71 73/73/73 74/74/74 72/72/72
f 73/73/73 75/75/75 76/76/76 74/74/74
f 75/75/75 77/77/77 78/78/78 76/76/76
f 77/77/77 79/79/79 80/80/80 78/78/78
f 79/79/79 81/81/81 82/82/82 80/80/80
f 81/81/81 83/83/83 84/84/84 82/82/82
f 83/83/83 85/85/85 86/86/86 84/84/84
f 85/85/85 87/87/87 88/88/88 86/86/86
f 87/87/87 46/45/45 48/48/48 88/88/88
s 3
f 89/89/89 90/90/90 91/91/91 92/92/92
f 90/90/90 93/93/93 94/94/94 91/91/91
f 93/93/93 95/95/95 96/96/96 94/94/94
f 95/95/95 97/97/97 98/98/98 96/96/96
f 97/97/97 99/99/99 100/100/100 98/98/98
f 99/99/99 101/101/101 102/134/102 100/100/100
f 101/133/101 103/103/103 104/104/104 102/102/102
f 103/103/103 105/105/105 106/106/106 104/104/104
f 105/105/105 107/107/107 108/108/108 106/106/106
f 107/107/107 109/109/109 110/110/110 108/108/108
f 109/109/109 111/111/111 112/112/112 110/110/110
f 111/111/111 113/113/113 114/114/114 112/112/112
f 113/113/113 115/115/115 116/116/116 114/114/114
f 115/115/115 117/117/117 118/118/118 116/116/116
f 117/117/117 119/119/119 120/120/120 118/118/118
f 119/119/119 121/121/121 122/122/122 120/120/120
f 121/121/121 123/123/123 124/124/124 122/122/122
f 123/123/123 125/125/125 126/126/126 124/124/124
f 125/125/125 127/127/127 128/128/128 126/126/126
f 127/127/127 129/129/129 130/130/130 128/128/128
f 129/129/129 131/131/131 132/132/132 130/130/130
f 131/131/131 89/89/89 92/92/92 132/132/132
s off
f 2/2/133 3/6/134 45/46/135 46/45/136
f 3/6/137 5/8/138 49/49/139 45/46/140
f 5/8/141 7/10/142 51/51/143 49/49/144
f 7/10/145 9/12/146 53/53/147 51/51/148
f 9/12/149 11/14/150 55/55/151 53/53/152
f 11/14/153 13/138/154 57/136/155 55/55/156
f 13/16/157 15/18/158 59/59/159 57/57/160
f 15/18/161 17/20/162 61/61/163 59/59/164
f 17/20/165 19/22/166 63/63/167 61/61/168
f 19/22/169 21/24/170 65/65/171 63/63/172
f 21/24/173 23/26/174 67/67/175 65/65/176
f 23/26/177 25/28/178 69/69/179 67/67/180
f 25/28/181 27/30/182 71/71/183 69/69/184
f 27/30/185 29/32/186 73/73/187 71/71/188
f 29/32/189 31/34/190 75/75/191 73/73/192
f 31/34/193 33/36/194 77/77/195 75/75/196
f 33/36/197 35/38/198 79/79/199 77/77/200
f 35/38/201 37/40/202 81/81/203 79/79/204
f 37/40/205 39/42/206 83/83/207 81/81/208
f 39/42/209 41/44/210 85/85/211 83/83/212
f 41/44/213 43/3/214 87/87/215 85/85/216
f 43/3/217 2/2/218 46/45/219 87/87/220
f 4/5/221 1/1/222 92/92/223 91/91/224
f 6/7/225 4/5/226 91/91/227 94/94/228
f 8/9/229 6/7/230 94/94/231 96/96/232
f 10/11/233 8/9/234 96/96/235 98/98/236
f 12/13/237 10/11/238 98/98/239 100/100/240
f 14/15/241 12/13/242 100/100/243 102/134/244
f 16/17/245 14/135/246 102/102/247 104/104/248
f 18/19/249 16/17/250 104/104/251 106/106/252
f 20/21/253 18/19/254 106/106/255 108/108/256
f 22/23/257 20/21/258 108/108/259 110/110/260
f 24/25/261 22/23/262 110/110/263 112/112/264
f 26/27/265 24/25/266 112/112/267 114/114/268
f 28/29/269 26/27/270 114/114/271 116/116/272
f 30/31/273 28/29/274 116/116/275 118/118/276
f 32/33/277 30/31/278 118/118/279 120/120/280
f 34/35/281 32/33/282 120/120/283 122/122/284
f 36/37/285 34/35/286 122/122/287 124/124/288
f 38/39/289 36/37/290 124/124/291 126/126/292
f 40/41/293 38/39/294 126/126/295 128/128/296
f 42/43/297 40/41/298 128/128/299 130/130/300
f 44/4/301 42/43/302 130/130/303 132/132/304
f 1/1/305 44/4/306 132/132/307 92/92/308
